<svg width="40" height="40" viewBox="0 0 40 40" fill="none" xmlns="http://www.w3.org/2000/svg">
<path d="M20.725 20L34.493 6.21604C34.5886 6.11943 34.6423 5.98898 34.6423 5.85304C34.6423 5.7171 34.5886 5.58665 34.493 5.49004C34.395 5.39659 34.2647 5.34454 34.1293 5.34473C33.9939 5.34491 33.8637 5.39732 33.766 5.49104L20 19.274L6.23199 5.49004C6.13393 5.3972 6.00403 5.34546 5.86899 5.34546C5.73395 5.34546 5.60405 5.3972 5.50599 5.49004C5.41042 5.58648 5.3568 5.71676 5.3568 5.85254C5.3568 5.98831 5.41042 6.1186 5.50599 6.21504L19.275 20L5.50699 33.784C5.45647 33.831 5.41593 33.8876 5.38779 33.9506C5.35965 34.0135 5.3445 34.0815 5.34323 34.1504C5.34196 34.2194 5.3546 34.2879 5.3804 34.3518C5.4062 34.4158 5.44463 34.4739 5.49339 34.5226C5.54215 34.5714 5.60024 34.6098 5.66419 34.6356C5.72814 34.6614 5.79664 34.6741 5.86558 34.6728C5.93453 34.6715 6.00251 34.6564 6.06547 34.6282C6.12842 34.6001 6.18506 34.5596 6.23199 34.509L20 20.726L33.767 34.51C33.8146 34.5577 33.8711 34.5955 33.9333 34.6214C33.9956 34.6472 34.0623 34.6605 34.1296 34.6605C34.197 34.6606 34.2637 34.6474 34.326 34.6216C34.3882 34.5959 34.4448 34.5581 34.4925 34.5105C34.5402 34.4629 34.578 34.4064 34.6038 34.3442C34.6296 34.282 34.6429 34.2153 34.643 34.1479C34.643 34.0805 34.6298 34.0138 34.6041 33.9515C34.5783 33.8893 34.5406 33.8327 34.493 33.785L20.725 20Z" fill="white"/>
</svg>
