<svg width="40" height="40" viewBox="0 0 40 40" fill="none" xmlns="http://www.w3.org/2000/svg">
<path d="M29.6202 13H10.3798C10.279 13 10.1825 12.9473 10.1112 12.8536C10.04 12.7598 10 12.6326 10 12.5C10 12.3674 10.04 12.2402 10.1112 12.1464C10.1825 12.0527 10.279 12 10.3798 12H29.6202C29.721 12 29.8175 12.0527 29.8888 12.1464C29.96 12.2402 30 12.3674 30 12.5C30 12.6326 29.96 12.7598 29.8888 12.8536C29.8175 12.9473 29.721 13 29.6202 13Z" fill="white"/>
<path d="M29.6202 20H10.3798C10.279 20 10.1825 19.9473 10.1112 19.8536C10.04 19.7598 10 19.6326 10 19.5C10 19.3674 10.04 19.2402 10.1112 19.1464C10.1825 19.0527 10.279 19 10.3798 19H29.6202C29.721 19 29.8175 19.0527 29.8888 19.1464C29.96 19.2402 30 19.3674 30 19.5C30 19.6326 29.96 19.7598 29.8888 19.8536C29.8175 19.9473 29.721 20 29.6202 20Z" fill="white"/>
<path d="M29.6202 27H10.3798C10.279 27 10.1825 26.9473 10.1112 26.8536C10.04 26.7598 10 26.6326 10 26.5C10 26.3674 10.04 26.2402 10.1112 26.1464C10.1825 26.0527 10.279 26 10.3798 26H29.6202C29.721 26 29.8175 26.0527 29.8888 26.1464C29.96 26.2402 30 26.3674 30 26.5C30 26.6326 29.96 26.7598 29.8888 26.8536C29.8175 26.9473 29.721 27 29.6202 27Z" fill="white"/>
<circle cx="20" cy="20" r="19.5" stroke="white"/>
</svg>
