<svg width="552" height="303" viewBox="0 0 552 303" fill="none" xmlns="http://www.w3.org/2000/svg">
<rect x="12" y="148" width="537" height="138" fill="#5F9EA0"/>
<path d="M90.5625 134H76.9922V86.6797H25.3828V134H11.8828V31.625H25.3828V75.6406H76.9922V31.625H90.5625V134ZM172.336 107.281H129.445L119.812 134H105.891L144.984 31.625H156.797L195.961 134H182.109L172.336 107.281ZM133.523 96.1719H168.328L150.891 48.2891L133.523 96.1719ZM284.203 101.516C282.938 112.344 278.93 120.711 272.18 126.617C265.477 132.477 256.547 135.406 245.391 135.406C233.297 135.406 223.594 131.07 216.281 122.398C209.016 113.727 205.383 102.125 205.383 87.5938V77.75C205.383 68.2344 207.07 59.8672 210.445 52.6484C213.867 45.4297 218.695 39.8984 224.93 36.0547C231.164 32.1641 238.383 30.2188 246.586 30.2188C257.461 30.2188 266.18 33.2656 272.742 39.3594C279.305 45.4062 283.125 53.7969 284.203 64.5312H270.633C269.461 56.375 266.906 50.4688 262.969 46.8125C259.078 43.1562 253.617 41.3281 246.586 41.3281C237.961 41.3281 231.188 44.5156 226.266 50.8906C221.391 57.2656 218.953 66.3359 218.953 78.1016V88.0156C218.953 99.125 221.273 107.961 225.914 114.523C230.555 121.086 237.047 124.367 245.391 124.367C252.891 124.367 258.633 122.68 262.617 119.305C266.648 115.883 269.32 109.953 270.633 101.516H284.203ZM328.711 86.3984L316.195 99.4062V134H302.695V31.625H316.195V82.25L361.688 31.625H378L337.711 76.8359L381.164 134H364.992L328.711 86.3984ZM450.844 86.6797H406.477V122.961H458.016V134H392.977V31.625H457.312V42.7344H406.477V75.6406H450.844V86.6797ZM512.367 92.5859H488.32V134H474.75V31.625H508.641C520.172 31.625 529.031 34.25 535.219 39.5C541.453 44.75 544.57 52.3906 544.57 62.4219C544.57 68.7969 542.836 74.3516 539.367 79.0859C535.945 83.8203 531.164 87.3594 525.023 89.7031L549.07 133.156V134H534.586L512.367 92.5859ZM488.32 81.5469H509.062C515.766 81.5469 521.086 79.8125 525.023 76.3438C529.008 72.875 531 68.2344 531 62.4219C531 56.0938 529.102 51.2422 525.305 47.8672C521.555 44.4922 516.117 42.7813 508.992 42.7344H488.32V81.5469Z" fill="white"/>
<path d="M167.562 268H153.992L102.453 189.109V268H88.8828V165.625H102.453L154.133 244.867V165.625H167.562V268ZM249.406 220.68H205.039V256.961H256.578V268H191.539V165.625H255.875V176.734H205.039V209.641H249.406V220.68ZM295.461 235.727L297.43 249.227L300.312 237.062L320.562 165.625H331.953L351.711 237.062L354.523 249.438L356.703 235.656L372.594 165.625H386.164L361.344 268H349.039L327.945 193.398L326.328 185.594L324.711 193.398L302.844 268H290.539L265.789 165.625H279.289L295.461 235.727ZM431.375 222.367C419.797 219.039 411.359 214.961 406.062 210.133C400.812 205.258 398.188 199.258 398.188 192.133C398.188 184.07 401.398 177.414 407.82 172.164C414.289 166.867 422.68 164.219 432.992 164.219C440.023 164.219 446.281 165.578 451.766 168.297C457.297 171.016 461.562 174.766 464.562 179.547C467.609 184.328 469.133 189.555 469.133 195.227H455.562C455.562 189.039 453.594 184.188 449.656 180.672C445.719 177.109 440.164 175.328 432.992 175.328C426.336 175.328 421.133 176.805 417.383 179.758C413.68 182.664 411.828 186.719 411.828 191.922C411.828 196.094 413.586 199.633 417.102 202.539C420.664 205.398 426.688 208.023 435.172 210.414C443.703 212.805 450.359 215.453 455.141 218.359C459.969 221.219 463.531 224.57 465.828 228.414C468.172 232.258 469.344 236.781 469.344 241.984C469.344 250.281 466.109 256.938 459.641 261.953C453.172 266.922 444.523 269.406 433.695 269.406C426.664 269.406 420.102 268.07 414.008 265.398C407.914 262.68 403.203 258.977 399.875 254.289C396.594 249.602 394.953 244.281 394.953 238.328H408.523C408.523 244.516 410.797 249.414 415.344 253.023C419.938 256.586 426.055 258.367 433.695 258.367C440.82 258.367 446.281 256.914 450.078 254.008C453.875 251.102 455.773 247.141 455.773 242.125C455.773 237.109 454.016 233.242 450.5 230.523C446.984 227.758 440.609 225.039 431.375 222.367Z" fill="white"/>
</svg>
